<svg width="147" height="38" viewBox="0 0 147 38" fill="none" xmlns="http://www.w3.org/2000/svg">
<path d="M21.1008 0.627256C17.8827 3.07172 14.1019 4.82816 10.8011 7.12047C6.16609 10.3356 3.40825 15.8034 7.09309 20.9768C11.3739 26.9838 20.9816 23.7025 18.8097 16.3327C17.7635 12.7867 13.8933 11.6786 10.5528 11.7646C13.7178 9.6774 17.0385 7.83826 20.2201 5.78081C21.359 5.04317 22.8124 4.17653 23.8453 3.34958C23.9546 3.26026 23.9844 3.11141 24.0903 3.0221C24.342 3.38927 24.14 3.76636 24.14 4.15668C24.1069 8.06981 24.1731 11.9829 24.1499 15.8994C21.8523 21.4565 16.1148 25.1116 10.8839 27.6321C10.1919 27.9662 7.24207 29.3588 6.69249 29.3224C6.59648 29.3158 6.50709 29.3092 6.42432 29.2563C-3.6469 21.5822 -1.7035 4.31214 10.9865 0.680181C14.1946 -0.236079 17.8827 -0.199694 21.0974 0.627256H21.1008Z" fill="#E2C065"/>
<path d="M3.47852 35.4963L3.61757 35.2549C11.4838 32.2216 19.3932 28.5665 23.9686 21.1471C25.8027 18.1701 26.4318 15.7521 26.8721 12.3153C26.8853 12.1995 26.9151 11.8059 27.0773 11.8158C30.1365 21.071 26.0179 29.9525 18.3039 35.2615C17.3902 35.89 14.3509 37.7754 13.4074 37.9739C12.924 38.0764 11.7388 37.835 11.1826 37.749C8.52737 37.3421 5.97149 36.4688 3.48183 35.4997L3.47852 35.4963Z" fill="white"/>
<path d="M34.9473 30.8908V24.1859H39.5161V25.337H36.3278V26.938H39.2744V28.066H36.3278V29.7364H39.5227V30.8875H34.9506L34.9473 30.8908Z" fill="#E2C065"/>
<path d="M41.9261 24.1843V30.8892H40.5488V24.1843H41.9261ZM42.9127 30.8892H41.1746V29.7116H42.8465C43.2802 29.7116 43.6444 29.6322 43.939 29.4768C44.2337 29.3213 44.4522 29.0831 44.5978 28.759C44.7435 28.4348 44.8197 28.028 44.8197 27.5318C44.8197 27.0356 44.7468 26.6321 44.5978 26.3112C44.4489 25.9904 44.2304 25.7522 43.939 25.5967C43.6477 25.4413 43.2868 25.3619 42.8531 25.3619H41.1414V24.181H42.9359C43.6112 24.181 44.1906 24.3166 44.6773 24.5845C45.1607 24.8525 45.5348 25.2395 45.7996 25.739C46.0645 26.2384 46.1936 26.8372 46.1936 27.5285C46.1936 28.2198 46.0645 28.8218 45.8029 29.3246C45.5414 29.8241 45.1673 30.2111 44.674 30.4823C44.184 30.7536 43.598 30.8859 42.916 30.8859L42.9127 30.8892Z" fill="#E2C065"/>
<path d="M49.926 30.9868C49.3698 30.9868 48.8864 30.8842 48.4692 30.6791C48.0554 30.4741 47.7343 30.1896 47.5025 29.8224C47.2741 29.4553 47.1582 29.0286 47.1582 28.5423V24.1859H48.5288V28.4298C48.5288 28.6912 48.5884 28.9227 48.701 29.1245C48.8136 29.3263 48.9791 29.485 49.191 29.6008C49.3996 29.7166 49.6446 29.7728 49.926 29.7728C50.2074 29.7728 50.4524 29.7166 50.6609 29.6008C50.8695 29.485 51.0317 29.3263 51.1476 29.1245C51.2635 28.9227 51.3198 28.6912 51.3198 28.4298V24.1859H52.6937V28.5423C52.6937 29.0286 52.5779 29.4553 52.3494 29.8224C52.121 30.1896 51.7965 30.4774 51.3794 30.6791C50.9622 30.8842 50.4789 30.9868 49.9227 30.9868H49.926Z" fill="#E2C065"/>
<path d="M56.7986 30.987C56.1993 30.987 55.6663 30.8514 55.1929 30.5769C54.7194 30.3023 54.3486 29.912 54.0771 29.396C53.8057 28.8833 53.6699 28.2647 53.6699 27.5403C53.6699 26.8159 53.8057 26.194 54.0805 25.678C54.3552 25.162 54.726 24.7684 55.2028 24.4971C55.6762 24.2226 56.2092 24.087 56.8019 24.087C57.1859 24.087 57.5435 24.1399 57.8779 24.2491C58.2089 24.3582 58.5036 24.5137 58.7585 24.7221C59.0134 24.9305 59.222 25.1819 59.3875 25.4796C59.5498 25.7773 59.659 26.1147 59.7087 26.4917H58.3182C58.2851 26.3065 58.2255 26.1378 58.1394 25.9923C58.0533 25.8467 57.9441 25.721 57.8149 25.6185C57.6858 25.5159 57.5402 25.4399 57.3746 25.3869C57.2091 25.334 57.0303 25.3076 56.835 25.3076C56.4807 25.3076 56.1695 25.3969 55.9047 25.5722C55.6398 25.7508 55.4345 26.0022 55.2889 26.3363C55.1432 26.6704 55.0737 27.0706 55.0737 27.5403C55.0737 28.01 55.1465 28.4202 55.2922 28.7543C55.4379 29.0884 55.6431 29.3365 55.908 29.5085C56.1728 29.6805 56.4807 29.7665 56.835 29.7665C57.027 29.7665 57.2058 29.74 57.3713 29.6838C57.5368 29.6275 57.6858 29.5515 57.8149 29.4522C57.9441 29.353 58.0533 29.2273 58.1427 29.0818C58.2288 28.9362 58.2917 28.7675 58.3281 28.5823H59.7186C59.6756 28.9098 59.5796 29.2174 59.4273 29.5052C59.275 29.7929 59.073 30.0476 58.8247 30.2726C58.5731 30.4975 58.2785 30.6695 57.9408 30.7952C57.6031 30.9209 57.2256 30.9837 56.8085 30.9837L56.7986 30.987Z" fill="#E2C065"/>
<path d="M60.0072 30.8908L62.3181 24.1859H64.1092L66.4664 30.8908H64.9336L63.8609 27.6492C63.7318 27.2291 63.5994 26.7759 63.4669 26.2864C63.3345 25.7968 63.1921 25.261 63.0398 24.6788H63.3544C63.2087 25.2643 63.0696 25.8001 62.9438 26.293C62.818 26.7826 62.6922 27.2357 62.5664 27.6492L61.5169 30.8908H60.0039H60.0072ZM61.454 29.356V28.2711H65.023V29.356H61.454Z" fill="#E2C065"/>
<path d="M66.1191 25.337V24.1859H71.5951V25.337H69.5491V30.8908H68.1718V25.337H66.1191Z" fill="#E2C065"/>
<path d="M73.8694 24.1859V30.8908H72.4922V24.1859H73.8694Z" fill="#E2C065"/>
<path d="M77.9829 30.987C77.387 30.987 76.854 30.8514 76.3805 30.5769C75.9071 30.3023 75.533 29.912 75.2582 29.396C74.9834 28.8833 74.8477 28.2647 74.8477 27.5403C74.8477 26.8159 74.9867 26.194 75.2582 25.678C75.5297 25.162 75.9071 24.7684 76.3805 24.4971C76.854 24.2226 77.3903 24.087 77.9829 24.087C78.5755 24.087 79.1119 24.2226 79.5853 24.4971C80.0587 24.7717 80.4328 25.1653 80.7076 25.678C80.9824 26.194 81.1182 26.8126 81.1182 27.5403C81.1182 28.268 80.9824 28.8833 80.7076 29.396C80.4328 29.912 80.0587 30.3023 79.5853 30.5769C79.1119 30.8514 78.5788 30.9837 77.9829 30.9837V30.987ZM77.9829 29.7665C78.3305 29.7665 78.6351 29.6805 78.8967 29.5085C79.1582 29.3365 79.3602 29.0851 79.5058 28.7543C79.6515 28.4235 79.7243 28.02 79.7243 27.5403C79.7243 27.0607 79.6515 26.6538 79.5058 26.3197C79.3602 25.9857 79.1582 25.7343 78.8967 25.5623C78.6351 25.3903 78.3305 25.3042 77.9829 25.3042C77.6353 25.3042 77.334 25.3903 77.0691 25.5623C76.8076 25.7343 76.6023 25.9857 76.4567 26.3197C76.311 26.6538 76.2382 27.0574 76.2382 27.537C76.2382 28.0166 76.311 28.4169 76.4567 28.7477C76.6023 29.0785 76.8076 29.3298 77.0691 29.5018C77.3307 29.6739 77.6353 29.7599 77.9829 29.7599V29.7665Z" fill="#E2C065"/>
<path d="M82.0886 30.8908V24.1859H83.605L85.7338 27.5897C85.8298 27.7484 85.9324 27.9271 86.0417 28.1222C86.1509 28.3174 86.2635 28.5357 86.3793 28.7772C86.4952 29.0186 86.6111 29.2766 86.7237 29.5611L86.5747 29.6405C86.5581 29.399 86.5416 29.141 86.525 28.8632C86.5085 28.5853 86.4985 28.3207 86.4886 28.066C86.4787 27.8113 86.4754 27.5963 86.4754 27.4276V24.1859H87.8758V30.8908H86.3529L84.4194 27.808C84.2903 27.5996 84.1645 27.3846 84.042 27.1729C83.9195 26.9579 83.7937 26.7197 83.6579 26.4551C83.5255 26.1905 83.3699 25.8828 83.1911 25.5322L83.3798 25.4958C83.3964 25.8233 83.4162 26.1342 83.4328 26.4286C83.4494 26.723 83.4626 26.9909 83.4725 27.2258C83.4825 27.464 83.4858 27.6558 83.4858 27.8014V30.8875H82.082L82.0886 30.8908Z" fill="#E2C065"/>
<path d="M88.6459 30.8908L90.9568 24.1859H92.7479L95.1051 30.8908H93.5722L92.4996 27.6492C92.3705 27.2291 92.238 26.7759 92.1056 26.2864C91.9732 25.7968 91.8308 25.261 91.6785 24.6788H91.993C91.8474 25.2643 91.7083 25.8001 91.5825 26.293C91.4567 26.7826 91.3309 27.2357 91.2051 27.6492L90.1556 30.8908H88.6426H88.6459ZM90.0894 29.356V28.2711H93.6583V29.356H90.0894Z" fill="#E2C065"/>
<path d="M95.8652 30.8908V24.1859H97.2425V29.7397H100.176V30.8908H95.8652Z" fill="#E2C065"/>
<path d="M106.14 30.987C105.541 30.987 105.008 30.8514 104.535 30.5769C104.061 30.3023 103.69 29.912 103.419 29.396C103.147 28.8833 103.012 28.2647 103.012 27.5403C103.012 26.8159 103.147 26.194 103.422 25.678C103.697 25.162 104.068 24.7684 104.545 24.4971C105.018 24.2226 105.551 24.087 106.144 24.087C106.528 24.087 106.885 24.1399 107.22 24.2491C107.551 24.3582 107.845 24.5137 108.1 24.7221C108.355 24.9305 108.564 25.1819 108.729 25.4796C108.892 25.7773 109.001 26.1147 109.05 26.4917H107.66C107.627 26.3065 107.567 26.1378 107.481 25.9923C107.395 25.8467 107.286 25.721 107.157 25.6185C107.028 25.5159 106.882 25.4399 106.716 25.3869C106.551 25.334 106.372 25.3076 106.177 25.3076C105.823 25.3076 105.511 25.3969 105.246 25.5722C104.982 25.7508 104.776 26.0022 104.631 26.3363C104.485 26.6704 104.415 27.0706 104.415 27.5403C104.415 28.01 104.488 28.4202 104.634 28.7543C104.78 29.0884 104.985 29.3365 105.25 29.5085C105.515 29.6805 105.823 29.7665 106.177 29.7665C106.369 29.7665 106.548 29.74 106.713 29.6838C106.879 29.6275 107.028 29.5515 107.157 29.4522C107.286 29.353 107.395 29.2273 107.485 29.0818C107.571 28.9362 107.633 28.7675 107.67 28.5823H109.06C109.017 28.9098 108.921 29.2174 108.769 29.5052C108.617 29.7929 108.415 30.0476 108.167 30.2726C107.915 30.4975 107.62 30.6695 107.283 30.7952C106.945 30.9209 106.567 30.9837 106.15 30.9837L106.14 30.987Z" fill="#E2C065"/>
<path d="M112.944 30.987C112.348 30.987 111.815 30.8514 111.341 30.5769C110.868 30.3023 110.494 29.912 110.219 29.396C109.944 28.8833 109.809 28.2647 109.809 27.5403C109.809 26.8159 109.948 26.194 110.219 25.678C110.491 25.162 110.868 24.7684 111.341 24.4971C111.815 24.2226 112.351 24.087 112.944 24.087C113.536 24.087 114.073 24.2226 114.546 24.4971C115.02 24.7717 115.394 25.1653 115.669 25.678C115.943 26.194 116.079 26.8126 116.079 27.5403C116.079 28.268 115.943 28.8833 115.669 29.396C115.394 29.912 115.02 30.3023 114.546 30.5769C114.073 30.8514 113.54 30.9837 112.944 30.9837V30.987ZM112.944 29.7665C113.291 29.7665 113.596 29.6805 113.858 29.5085C114.119 29.3365 114.321 29.0851 114.467 28.7543C114.612 28.4235 114.685 28.02 114.685 27.5403C114.685 27.0607 114.612 26.6538 114.467 26.3197C114.321 25.9857 114.119 25.7343 113.858 25.5623C113.596 25.3903 113.291 25.3042 112.944 25.3042C112.596 25.3042 112.295 25.3903 112.03 25.5623C111.769 25.7343 111.563 25.9857 111.418 26.3197C111.272 26.6538 111.199 27.0574 111.199 27.537C111.199 28.0166 111.272 28.4169 111.418 28.7477C111.563 29.0785 111.769 29.3298 112.03 29.5018C112.292 29.6739 112.596 29.7599 112.944 29.7599V29.7665Z" fill="#E2C065"/>
<path d="M117.059 30.8908V24.1859H118.576L120.704 27.5897C120.8 27.7484 120.903 27.9271 121.012 28.1222C121.122 28.3174 121.234 28.5357 121.35 28.7772C121.466 29.0186 121.582 29.2766 121.694 29.5611L121.545 29.6405C121.529 29.399 121.512 29.141 121.496 28.8632C121.479 28.5853 121.469 28.3207 121.459 28.066C121.449 27.8113 121.446 27.5963 121.446 27.4276V24.1859H122.847V30.8908H121.324L119.39 27.808C119.261 27.5996 119.135 27.3846 119.013 27.1729C118.89 26.9579 118.764 26.7197 118.629 26.4551C118.496 26.1905 118.341 25.8828 118.162 25.5322L118.351 25.4958C118.367 25.8233 118.387 26.1342 118.404 26.4286C118.42 26.723 118.433 26.9909 118.443 27.2258C118.453 27.464 118.456 27.6558 118.456 27.8014V30.8875H117.053L117.059 30.8908Z" fill="#E2C065"/>
<path d="M126.498 30.987C125.951 30.987 125.478 30.9044 125.077 30.7357C124.677 30.567 124.369 30.3189 124.147 29.9914C123.925 29.6639 123.813 29.2604 123.803 28.7841H125.14C125.154 29.0123 125.216 29.2041 125.332 29.3629C125.448 29.5217 125.607 29.6375 125.806 29.7169C126.004 29.7962 126.229 29.8359 126.484 29.8359C126.739 29.8359 126.945 29.7995 127.13 29.7268C127.315 29.654 127.458 29.5548 127.56 29.4258C127.663 29.2968 127.713 29.1479 127.713 28.9792C127.713 28.8271 127.67 28.6981 127.58 28.5922C127.491 28.4864 127.362 28.397 127.19 28.321C127.017 28.2449 126.802 28.1787 126.547 28.1225L125.819 27.9439C125.23 27.8049 124.776 27.5866 124.452 27.2889C124.131 26.9912 123.968 26.5976 123.968 26.1114C123.968 25.7078 124.078 25.3539 124.296 25.0495C124.515 24.7452 124.813 24.5104 125.193 24.3417C125.574 24.173 126.008 24.087 126.501 24.087C126.994 24.087 127.435 24.173 127.805 24.345C128.176 24.517 128.464 24.7552 128.673 25.0595C128.881 25.3638 128.987 25.721 128.997 26.1246H127.673C127.65 25.8467 127.534 25.6284 127.325 25.4729C127.117 25.3175 126.839 25.2381 126.494 25.2381C126.263 25.2381 126.064 25.2712 125.895 25.3406C125.726 25.4068 125.597 25.5027 125.511 25.6185C125.422 25.7376 125.379 25.8732 125.379 26.0253C125.379 26.1775 125.425 26.3164 125.521 26.4223C125.617 26.5281 125.746 26.6174 125.912 26.6869C126.077 26.7564 126.266 26.8159 126.471 26.8655L127.084 27.0144C127.382 27.0805 127.653 27.1665 127.901 27.279C128.15 27.3915 128.362 27.5205 128.544 27.6759C128.722 27.8314 128.862 28.0166 128.958 28.2283C129.054 28.44 129.103 28.6848 129.103 28.9561C129.103 29.3662 129.001 29.7235 128.792 30.0278C128.583 30.3321 128.289 30.567 127.901 30.7323C127.514 30.8977 127.047 30.9804 126.501 30.9804L126.498 30.987Z" fill="#E2C065"/>
<path d="M132.815 30.9868C132.258 30.9868 131.775 30.8842 131.358 30.6791C130.944 30.4741 130.623 30.1896 130.391 29.8224C130.163 29.4553 130.047 29.0286 130.047 28.5423V24.1859H131.418V28.4298C131.418 28.6912 131.477 28.9227 131.59 29.1245C131.702 29.3263 131.868 29.485 132.08 29.6008C132.288 29.7166 132.533 29.7728 132.815 29.7728C133.096 29.7728 133.341 29.7166 133.55 29.6008C133.758 29.485 133.92 29.3263 134.036 29.1245C134.152 28.9227 134.208 28.6912 134.208 28.4298V24.1859H135.582V28.5423C135.582 29.0286 135.467 29.4553 135.238 29.8224C135.01 30.1896 134.685 30.4774 134.268 30.6791C133.851 30.8842 133.368 30.9868 132.811 30.9868H132.815Z" fill="#E2C065"/>
<path d="M136.746 30.8908V24.1859H138.123V29.7397H141.057V30.8908H136.746Z" fill="#E2C065"/>
<path d="M140.822 25.337V24.1859H146.298V25.337H144.252V30.8908H142.875V25.337H140.822Z" fill="#E2C065"/>
<path d="M40.2974 20.737C39.2115 20.737 38.2712 20.5683 37.48 20.2342C36.6854 19.9001 36.0729 19.4073 35.6326 18.7523C35.1956 18.0974 34.9671 17.2969 34.9473 16.3476H37.6025C37.6256 16.8007 37.7548 17.1844 37.9865 17.4987C38.2183 17.8129 38.5328 18.0478 38.9268 18.2065C39.3207 18.3653 39.771 18.4447 40.2775 18.4447C40.7841 18.4447 41.1946 18.3719 41.5621 18.2297C41.9296 18.0875 42.2143 17.8857 42.4163 17.631C42.6182 17.3763 42.7208 17.0786 42.7208 16.7445C42.7208 16.4402 42.6315 16.1822 42.456 15.9738C42.2805 15.7654 42.0223 15.5868 41.678 15.4379C41.3337 15.2891 40.9099 15.1567 40.4033 15.0443L38.9532 14.687C37.7846 14.4125 36.8807 13.9792 36.2384 13.3838C35.5962 12.7884 35.2783 12.0077 35.2783 11.0418C35.2783 10.2347 35.4935 9.53018 35.9272 8.92816C36.3609 8.32614 36.9536 7.85643 37.7084 7.51573C38.4633 7.17833 39.3274 7.00964 40.3073 7.00964C41.2873 7.00964 42.1613 7.17833 42.8963 7.51904C43.6313 7.85974 44.2074 8.33275 44.6179 8.9447C45.0284 9.55333 45.2436 10.2612 45.2602 11.0683H42.6315C42.5851 10.5126 42.3534 10.0793 41.9395 9.76834C41.5257 9.45741 40.9761 9.30194 40.2908 9.30194C39.8306 9.30194 39.4366 9.3681 39.1022 9.50372C38.7678 9.63934 38.5129 9.82457 38.3374 10.0594C38.162 10.2943 38.0726 10.5655 38.0726 10.8698C38.0726 11.1742 38.1653 11.452 38.354 11.6637C38.5427 11.8754 38.8009 12.0507 39.132 12.193C39.4631 12.3352 39.8339 12.451 40.2444 12.5469L41.4595 12.8413C42.0488 12.9736 42.5917 13.1489 43.0817 13.3639C43.575 13.5822 43.9988 13.8469 44.3563 14.1578C44.7139 14.4687 44.9887 14.8359 45.1807 15.2593C45.3727 15.6827 45.4687 16.1656 45.4687 16.7114C45.4687 17.5284 45.2635 18.2429 44.8529 18.8483C44.4424 19.4536 43.8498 19.9233 43.0817 20.2508C42.3136 20.5782 41.3866 20.7436 40.3007 20.7436L40.2974 20.737Z" fill="white"/>
<path d="M46.6283 9.48501V7.19271H57.504V9.48501H53.4418V20.5397H50.7038V9.48501H46.625H46.6283Z" fill="white"/>
<path d="M64.7737 20.7249C63.6713 20.7249 62.7078 20.5231 61.8835 20.1163C61.0591 19.7094 60.4201 19.1405 59.9666 18.4095C59.5097 17.6784 59.2812 16.8283 59.2812 15.8625V7.19271H61.9994V15.6408C61.9994 16.1602 62.1152 16.6232 62.3437 17.0235C62.5721 17.4237 62.8966 17.7446 63.3137 17.9728C63.7309 18.2011 64.2175 18.3168 64.7704 18.3168C65.3233 18.3168 65.8199 18.2011 66.2338 17.9728C66.6476 17.7446 66.9687 17.427 67.2005 17.0235C67.4322 16.6199 67.5448 16.1602 67.5448 15.6408V7.19271H70.2728V15.8625C70.2728 16.8283 70.0444 17.6784 69.5875 18.4095C69.1306 19.1405 68.4917 19.7094 67.664 20.1163C66.8363 20.5231 65.8729 20.7249 64.7704 20.7249H64.7737Z" fill="white"/>
<path d="M75.3083 7.19107V20.538H72.5703V7.19107H75.3083ZM77.2649 20.538H73.8118V18.1895H77.1292C77.9933 18.1895 78.7183 18.034 79.2977 17.7231C79.8771 17.4122 80.3174 16.9358 80.6087 16.2941C80.9001 15.6524 81.0458 14.8387 81.0458 13.853C81.0458 12.8673 80.9001 12.0635 80.6087 11.4251C80.3174 10.7866 79.8804 10.3103 79.3043 9.99939C78.7249 9.68846 78.0065 9.53299 77.149 9.53299H73.7489V7.18776H77.308C78.6488 7.18776 79.8009 7.45569 80.7644 7.98825C81.7278 8.52411 82.4694 9.28821 82.9925 10.2872C83.5156 11.2861 83.7738 12.4736 83.7738 13.853C83.7738 15.2323 83.5156 16.4298 82.9958 17.4254C82.476 18.4244 81.7311 19.1885 80.7544 19.7276C79.7811 20.2635 78.6157 20.5347 77.2616 20.5347L77.2649 20.538Z" fill="white"/>
<path d="M88.6609 20.5397V15.5217L83.7246 7.19271H86.9161L89.1707 11.3208C89.3926 11.7277 89.5945 12.1313 89.7799 12.5315C89.9653 12.9317 90.1507 13.3948 90.3427 13.9208H89.7435C89.9289 13.3882 90.1077 12.9218 90.2832 12.5183C90.4586 12.1147 90.6539 11.7178 90.8691 11.3208L93.0509 7.19271H96.2259L91.3691 15.5217V20.5397H88.6576H88.6609Z" fill="white"/>
<path d="M102.459 20.7287C101.214 20.7287 100.118 20.4509 99.1714 19.8919C98.2245 19.3329 97.4895 18.5423 96.9631 17.5169C96.4367 16.4915 96.1719 15.2808 96.1719 13.8849C96.1719 12.489 96.4467 11.2122 96.9962 10.1868C97.5458 9.16137 98.2874 8.37412 99.2277 7.82502C100.168 7.27923 101.227 7.00469 102.406 7.00469C103.157 7.00469 103.859 7.11384 104.512 7.33216C105.164 7.55047 105.743 7.86141 106.25 8.26827C106.756 8.67513 107.173 9.15476 107.498 9.70716C107.822 10.2596 108.031 10.8715 108.12 11.5397H105.339C105.25 11.2122 105.121 10.9178 104.949 10.6631C104.78 10.4051 104.571 10.1868 104.326 10.0016C104.081 9.81632 103.803 9.67739 103.489 9.58146C103.174 9.48554 102.826 9.43923 102.446 9.43923C101.747 9.43923 101.135 9.61123 100.608 9.95855C100.082 10.3059 99.6713 10.8087 99.38 11.4669C99.0886 12.1285 98.9429 12.9256 98.9429 13.8618C98.9429 14.7979 99.0886 15.5983 99.3767 16.2632C99.6647 16.9248 100.075 17.4309 100.605 17.7815C101.135 18.1321 101.76 18.3041 102.482 18.3041C103.121 18.3041 103.671 18.185 104.137 17.9502C104.604 17.7153 104.959 17.3813 105.207 16.9512C105.455 16.5212 105.578 16.0151 105.578 15.4363L106.167 15.5157H102.687V13.4384H108.243V15.1121C108.243 16.2632 107.994 17.2622 107.495 18.099C106.998 18.9392 106.313 19.5876 105.442 20.044C104.571 20.5005 103.575 20.7287 102.456 20.7287H102.459Z" fill="white"/>
<path d="M109.869 20.5397V7.19271H112.607V18.2474H118.431V20.5397H109.872H109.869Z" fill="white"/>
<path d="M122.562 7.19271V20.5397H119.824V7.19271H122.562Z" fill="white"/>
<path d="M127.252 7.19107V20.538H124.514V7.19107H127.252ZM129.212 20.538H125.758V18.1895H129.076C129.94 18.1895 130.665 18.034 131.244 17.7231C131.824 17.4122 132.264 16.9358 132.555 16.2941C132.847 15.6524 132.992 14.8387 132.992 13.853C132.992 12.8673 132.847 12.0635 132.555 11.4251C132.264 10.7866 131.827 10.3103 131.251 9.99939C130.672 9.68846 129.953 9.53299 129.096 9.53299H125.696V7.18776H129.255C130.595 7.18776 131.748 7.45569 132.711 7.98825C133.674 8.52411 134.416 9.28821 134.939 10.2872C135.462 11.2861 135.72 12.4736 135.72 13.853C135.72 15.2323 135.462 16.4298 134.942 17.4254C134.423 18.4244 133.678 19.1885 132.701 19.7276C131.728 20.2635 130.562 20.5347 129.208 20.5347L129.212 20.538Z" fill="white"/>
<path d="M137.279 20.5397V7.19271H146.347V9.48501H140.014V12.6737H145.864V14.923H140.014V18.2474H146.357V20.5397H137.279Z" fill="white"/>
</svg>
